<mxfile host="app.diagrams.net" modified="2024-02-20T08:38:11.082Z" agent="Mozilla/5.0 (Windows NT 10.0; Win64; x64) AppleWebKit/537.36 (KHTML, like Gecko) Chrome/121.0.0.0 Safari/537.36" etag="RgYZ2b0UCh3S8hYXmTrI" version="22.1.18" type="github">
  <diagram name="第 1 页" id="b1a1K8lGnvg2Fc-WdCFe">
    <mxGraphModel dx="2022" dy="615" grid="1" gridSize="10" guides="1" tooltips="1" connect="1" arrows="1" fold="1" page="1" pageScale="1" pageWidth="827" pageHeight="1169" math="0" shadow="0">
      <root>
        <mxCell id="0" />
        <mxCell id="1" parent="0" />
        <mxCell id="ppDxrrGSv02l8xtLy87P-1" value="" style="rounded=0;whiteSpace=wrap;html=1;fillColor=#CCCCCC;fontColor=#333333;strokeColor=#666666;" vertex="1" parent="1">
          <mxGeometry x="-50" y="150" width="450" height="90" as="geometry" />
        </mxCell>
        <mxCell id="ppDxrrGSv02l8xtLy87P-3" value="" style="rounded=0;whiteSpace=wrap;html=1;fillColor=#CCCCCC;fontColor=#333333;strokeColor=#666666;" vertex="1" parent="1">
          <mxGeometry x="-50" y="390" width="450" height="120" as="geometry" />
        </mxCell>
        <mxCell id="ppDxrrGSv02l8xtLy87P-4" value="&lt;font style=&quot;font-size: 20px;&quot;&gt;&lt;b&gt;AR&lt;/b&gt;&lt;/font&gt;" style="text;html=1;align=center;verticalAlign=middle;resizable=0;points=[];autosize=1;strokeColor=none;fillColor=none;" vertex="1" parent="1">
          <mxGeometry x="-5" y="90" width="50" height="40" as="geometry" />
        </mxCell>
        <mxCell id="ppDxrrGSv02l8xtLy87P-5" value="&lt;font style=&quot;font-size: 20px;&quot;&gt;&lt;b&gt;PDP&lt;/b&gt;&lt;/font&gt;" style="text;html=1;align=center;verticalAlign=middle;resizable=0;points=[];autosize=1;strokeColor=none;fillColor=none;" vertex="1" parent="1">
          <mxGeometry x="320" y="90" width="60" height="40" as="geometry" />
        </mxCell>
        <mxCell id="ppDxrrGSv02l8xtLy87P-6" value="&lt;font style=&quot;font-size: 20px;&quot;&gt;&lt;b&gt;PEP&lt;/b&gt;&lt;/font&gt;" style="text;html=1;align=center;verticalAlign=middle;resizable=0;points=[];autosize=1;strokeColor=none;fillColor=none;" vertex="1" parent="1">
          <mxGeometry x="150" y="90" width="60" height="40" as="geometry" />
        </mxCell>
        <mxCell id="ppDxrrGSv02l8xtLy87P-7" value="" style="verticalLabelPosition=bottom;verticalAlign=top;html=1;shape=mxgraph.basic.layered_rect;dx=10;outlineConnect=0;whiteSpace=wrap;" vertex="1" parent="1">
          <mxGeometry x="290" y="170" width="100" height="60" as="geometry" />
        </mxCell>
        <mxCell id="ppDxrrGSv02l8xtLy87P-8" value="" style="verticalLabelPosition=bottom;verticalAlign=top;html=1;shape=mxgraph.basic.layered_rect;dx=10;outlineConnect=0;whiteSpace=wrap;" vertex="1" parent="1">
          <mxGeometry x="-30" y="170" width="100" height="60" as="geometry" />
        </mxCell>
        <mxCell id="ppDxrrGSv02l8xtLy87P-9" value="" style="rounded=0;whiteSpace=wrap;html=1;" vertex="1" parent="1">
          <mxGeometry x="-30" y="290" width="100" height="50" as="geometry" />
        </mxCell>
        <mxCell id="ppDxrrGSv02l8xtLy87P-10" value="" style="rounded=0;whiteSpace=wrap;html=1;" vertex="1" parent="1">
          <mxGeometry x="290" y="290" width="100" height="50" as="geometry" />
        </mxCell>
        <mxCell id="ppDxrrGSv02l8xtLy87P-12" value="" style="rounded=0;whiteSpace=wrap;html=1;" vertex="1" parent="1">
          <mxGeometry x="-30" y="410" width="100" height="50" as="geometry" />
        </mxCell>
        <mxCell id="ppDxrrGSv02l8xtLy87P-13" value="" style="rounded=0;whiteSpace=wrap;html=1;" vertex="1" parent="1">
          <mxGeometry x="290" y="410" width="100" height="50" as="geometry" />
        </mxCell>
        <mxCell id="ppDxrrGSv02l8xtLy87P-14" value="" style="rounded=0;whiteSpace=wrap;html=1;" vertex="1" parent="1">
          <mxGeometry x="135" y="460" width="90" height="40" as="geometry" />
        </mxCell>
        <mxCell id="ppDxrrGSv02l8xtLy87P-15" value="" style="rounded=0;whiteSpace=wrap;html=1;" vertex="1" parent="1">
          <mxGeometry x="530" y="150" width="90" height="360" as="geometry" />
        </mxCell>
      </root>
    </mxGraphModel>
  </diagram>
</mxfile>
